<svg id="svg" version="1.1" xmlns="http://www.w3.org/2000/svg" xmlns:xlink="http://www.w3.org/1999/xlink" width="400" height="401.45985401459853" viewBox="0, 0, 400,401.45985401459853"><g id="svgg"><path id="path0" d="M187.911 7.238 C 187.850 7.405,186.225 7.599,184.300 7.670 C 182.375 7.742,180.800 7.905,180.800 8.033 C 180.800 8.312,180.797 8.312,176.100 8.403 C 174.066 8.443,172.300 8.638,172.177 8.838 C 172.054 9.037,171.063 9.200,169.976 9.200 C 168.889 9.200,168.000 9.380,168.000 9.600 C 168.000 9.820,167.220 10.000,166.267 10.000 C 165.313 10.000,164.398 10.135,164.233 10.300 C 164.068 10.465,163.453 10.626,162.867 10.657 C 162.280 10.689,161.800 10.747,161.800 10.788 C 161.800 10.930,160.182 11.184,158.600 11.291 C 157.720 11.350,156.900 11.533,156.777 11.698 C 156.655 11.863,156.025 12.073,155.377 12.165 C 154.730 12.258,153.629 12.512,152.930 12.730 C 152.232 12.948,151.557 13.023,151.430 12.897 C 151.304 12.770,151.200 12.877,151.200 13.133 C 151.200 13.390,150.761 13.600,150.224 13.600 C 149.687 13.600,149.136 13.780,149.000 14.000 C 148.864 14.220,148.043 14.400,147.176 14.400 C 146.309 14.400,145.600 14.580,145.600 14.800 C 145.600 15.020,145.195 15.199,144.700 15.198 C 143.630 15.196,139.857 16.471,139.667 16.900 C 139.593 17.065,138.828 17.200,137.967 17.200 C 137.105 17.200,136.400 17.380,136.400 17.600 C 136.400 17.820,135.875 18.000,135.233 18.000 C 134.592 18.000,134.007 18.135,133.933 18.300 C 133.702 18.821,131.310 20.000,130.484 20.000 C 130.048 20.000,129.189 20.261,128.574 20.580 C 127.960 20.898,127.282 21.050,127.067 20.918 C 126.850 20.784,126.804 20.882,126.962 21.138 C 127.134 21.416,126.984 21.600,126.585 21.600 C 126.221 21.600,125.435 21.948,124.837 22.373 C 123.953 23.003,122.379 23.620,121.200 23.800 C 120.620 23.888,118.000 25.330,118.000 25.560 C 118.000 25.709,117.611 25.859,117.136 25.895 C 116.661 25.931,116.166 26.125,116.036 26.326 C 115.844 26.624,114.594 27.178,113.600 27.407 C 113.026 27.538,110.805 29.042,110.803 29.300 C 110.801 29.465,110.438 29.600,109.995 29.600 C 108.957 29.600,107.841 30.216,105.831 31.900 C 105.502 32.175,105.031 32.400,104.782 32.400 C 104.360 32.400,100.841 34.693,100.400 35.255 C 100.290 35.395,99.500 35.802,98.645 36.158 C 97.789 36.514,96.778 37.164,96.398 37.603 C 96.017 38.041,95.502 38.400,95.253 38.400 C 95.004 38.400,94.800 38.580,94.800 38.800 C 94.800 39.020,94.532 39.200,94.205 39.200 C 93.590 39.200,92.358 40.077,91.254 41.300 C 90.906 41.685,90.378 42.000,90.078 42.000 C 89.779 42.000,88.766 42.630,87.826 43.400 C 86.886 44.170,85.982 44.800,85.816 44.800 C 85.651 44.800,85.161 45.250,84.729 45.800 C 84.296 46.350,83.694 46.800,83.391 46.800 C 83.088 46.800,82.696 47.042,82.520 47.337 C 82.344 47.632,81.660 48.212,81.000 48.626 C 80.340 49.039,79.056 50.103,78.147 50.989 C 77.237 51.875,75.452 53.500,74.179 54.600 C 72.906 55.700,70.824 57.615,69.552 58.855 C 68.281 60.096,66.757 61.491,66.166 61.955 C 65.575 62.420,65.219 62.800,65.375 62.800 C 65.692 62.800,65.271 63.223,63.086 65.100 C 62.253 65.815,61.654 66.400,61.754 66.400 C 61.854 66.400,60.875 67.505,59.579 68.855 C 58.282 70.205,57.293 71.427,57.382 71.571 C 57.471 71.714,57.032 72.175,56.408 72.595 C 55.784 73.014,54.981 73.969,54.625 74.717 C 54.196 75.616,53.779 76.001,53.392 75.852 C 52.998 75.701,52.722 75.981,52.542 76.714 C 52.395 77.311,51.809 78.240,51.238 78.778 C 50.667 79.315,50.242 79.890,50.292 80.055 C 50.343 80.219,49.938 80.705,49.392 81.135 C 48.847 81.564,48.400 82.095,48.400 82.315 C 48.400 82.934,46.140 85.207,45.831 84.898 C 45.681 84.748,45.662 84.895,45.789 85.226 C 45.916 85.557,45.648 86.227,45.194 86.714 C 44.740 87.201,44.511 87.605,44.684 87.612 C 44.858 87.619,44.685 87.808,44.300 88.032 C 43.915 88.256,43.600 88.701,43.600 89.020 C 43.600 89.339,43.420 89.600,43.200 89.600 C 42.980 89.600,42.800 89.870,42.800 90.200 C 42.800 90.530,42.620 90.800,42.400 90.800 C 42.180 90.800,42.000 91.070,42.000 91.400 C 42.000 91.730,41.820 92.000,41.600 92.000 C 41.380 92.000,41.200 92.193,41.200 92.429 C 41.200 92.664,40.975 93.108,40.700 93.415 C 39.423 94.838,39.200 95.221,39.200 95.983 C 39.200 96.432,39.022 96.800,38.805 96.800 C 38.298 96.800,36.400 99.793,36.400 100.592 C 36.400 100.926,36.220 101.200,36.000 101.200 C 35.780 101.200,35.600 101.590,35.600 102.067 C 35.600 102.543,35.487 102.821,35.350 102.683 C 35.212 102.546,34.627 103.371,34.050 104.517 C 33.472 105.662,32.691 106.942,32.314 107.361 C 31.936 107.779,31.705 108.247,31.800 108.400 C 31.895 108.553,31.619 109.059,31.186 109.523 C 30.754 109.987,30.400 110.608,30.400 110.904 C 30.400 111.653,29.463 113.593,29.100 113.597 C 28.935 113.599,28.800 113.869,28.800 114.197 C 28.800 115.031,27.477 118.000,27.106 118.000 C 26.938 118.000,26.800 118.337,26.800 118.748 C 26.800 119.159,26.092 120.848,25.227 122.500 C 24.362 124.152,23.532 126.157,23.382 126.956 C 23.232 127.755,22.950 128.507,22.755 128.628 C 22.560 128.749,22.400 129.197,22.400 129.624 C 22.400 130.051,22.264 130.400,22.098 130.400 C 21.636 130.400,20.837 132.442,20.727 133.900 C 20.674 134.615,20.488 135.200,20.315 135.200 C 20.142 135.200,20.000 135.530,20.000 135.933 C 20.000 136.337,19.867 136.799,19.705 136.962 C 19.543 137.124,19.393 137.469,19.372 137.728 C 19.272 138.969,18.663 140.800,18.350 140.800 C 18.158 140.800,18.000 141.430,18.000 142.200 C 18.000 142.970,17.820 143.600,17.600 143.600 C 17.380 143.600,17.200 144.219,17.200 144.976 C 17.200 145.733,17.043 146.450,16.852 146.568 C 16.660 146.686,16.367 147.372,16.201 148.092 C 16.034 148.811,15.811 149.670,15.704 150.000 C 15.597 150.330,15.422 151.455,15.316 152.500 C 15.210 153.545,14.960 154.400,14.761 154.400 C 14.563 154.400,14.400 155.379,14.400 156.576 C 14.400 157.773,14.220 158.864,14.000 159.000 C 13.780 159.136,13.600 159.856,13.600 160.600 C 13.600 161.344,13.420 162.064,13.200 162.200 C 12.980 162.336,12.800 163.157,12.800 164.024 C 12.800 164.891,12.657 165.600,12.482 165.600 C 12.307 165.600,12.119 166.275,12.064 167.100 C 12.009 167.925,11.865 169.500,11.744 170.600 C 11.622 171.700,11.478 173.140,11.422 173.800 C 11.367 174.460,11.193 176.170,11.036 177.600 C 10.879 179.030,10.733 181.280,10.711 182.600 C 10.689 183.920,10.525 185.193,10.347 185.428 C 9.679 186.307,10.270 215.713,11.049 220.400 C 11.214 221.390,11.371 222.830,11.398 223.600 C 11.426 224.370,11.576 225.495,11.732 226.100 C 11.918 226.823,11.859 227.200,11.559 227.200 C 11.218 227.200,11.219 227.341,11.562 227.754 C 11.815 228.059,12.075 229.374,12.140 230.677 C 12.205 231.981,12.375 233.237,12.519 233.468 C 12.662 233.700,12.815 234.499,12.860 235.245 C 12.905 235.990,13.082 236.789,13.253 237.019 C 13.424 237.250,13.608 238.093,13.662 238.893 C 13.716 239.694,13.904 240.259,14.080 240.151 C 14.348 239.985,14.578 242.003,14.507 243.900 C 14.497 244.175,14.643 244.400,14.832 244.400 C 15.021 244.400,15.160 244.985,15.140 245.700 C 15.121 246.415,15.394 247.810,15.747 248.800 C 16.100 249.790,16.391 250.990,16.394 251.467 C 16.397 251.943,16.564 252.393,16.765 252.467 C 16.965 252.540,17.190 253.230,17.265 254.000 C 17.339 254.770,17.546 255.508,17.725 255.639 C 17.904 255.771,18.066 256.448,18.086 257.145 C 18.106 257.841,18.216 258.317,18.331 258.202 C 18.511 258.022,19.460 260.193,19.729 261.400 C 19.779 261.620,20.019 262.340,20.263 263.000 C 20.507 263.660,20.942 265.010,21.228 266.000 C 21.515 266.990,22.260 268.939,22.885 270.332 C 23.509 271.725,23.987 273.075,23.947 273.332 C 23.851 273.948,24.356 275.149,25.265 276.462 C 25.669 277.046,26.000 277.811,26.000 278.162 C 26.000 278.513,26.180 278.800,26.400 278.800 C 26.620 278.800,26.800 279.079,26.800 279.420 C 26.800 279.761,27.107 280.616,27.482 281.320 C 27.857 282.024,28.124 282.747,28.074 282.926 C 28.024 283.105,28.347 283.763,28.791 284.388 C 29.236 285.012,29.600 285.821,29.600 286.185 C 29.600 286.549,29.780 286.736,30.000 286.600 C 30.228 286.459,30.400 286.804,30.400 287.400 C 30.400 287.976,30.553 288.353,30.740 288.237 C 30.928 288.121,31.316 288.741,31.604 289.613 C 31.892 290.486,32.274 291.200,32.451 291.200 C 32.629 291.200,32.680 291.447,32.564 291.748 C 32.449 292.050,32.646 292.409,33.002 292.546 C 33.359 292.682,33.551 292.955,33.430 293.152 C 33.308 293.348,33.486 293.739,33.824 294.020 C 34.450 294.539,35.982 297.579,35.864 298.068 C 35.829 298.215,36.163 298.755,36.607 299.268 C 37.885 300.744,39.200 302.730,39.200 303.184 C 39.200 303.413,39.380 303.600,39.600 303.600 C 39.820 303.600,40.000 303.772,40.000 303.982 C 40.000 304.192,40.716 305.386,41.591 306.635 C 42.466 307.884,43.067 309.107,42.927 309.353 C 42.786 309.599,42.824 309.661,43.011 309.492 C 43.284 309.243,45.699 312.459,45.795 313.200 C 45.848 313.612,46.776 314.987,46.788 314.671 C 46.806 314.170,48.000 315.478,48.000 316.000 C 48.000 316.251,48.225 316.708,48.500 317.015 C 49.572 318.210,50.000 318.775,50.000 318.996 C 50.000 319.123,50.585 319.849,51.300 320.611 C 53.737 323.205,54.769 324.400,54.571 324.400 C 54.462 324.400,54.964 325.029,55.687 325.798 C 56.409 326.568,57.540 327.837,58.200 328.620 C 58.860 329.402,60.255 330.935,61.300 332.026 C 62.345 333.118,63.200 334.308,63.200 334.672 C 63.200 335.036,63.291 335.242,63.403 335.130 C 63.693 334.840,67.915 338.937,67.710 339.310 C 67.617 339.480,67.700 339.570,67.895 339.510 C 68.436 339.342,70.786 341.699,70.515 342.138 C 70.383 342.351,70.485 342.395,70.741 342.236 C 71.001 342.076,71.311 342.225,71.446 342.575 C 71.578 342.919,71.855 343.200,72.063 343.200 C 72.270 343.200,73.106 343.851,73.920 344.647 C 74.734 345.443,76.210 346.744,77.200 347.539 C 78.190 348.335,79.467 349.438,80.039 349.992 C 80.610 350.547,81.330 351.052,81.639 351.117 C 81.947 351.181,82.567 351.676,83.015 352.217 C 83.463 352.757,84.054 353.200,84.329 353.200 C 84.603 353.200,85.327 353.695,85.938 354.300 C 87.654 355.998,89.199 357.226,89.206 356.897 C 89.209 356.734,89.344 356.792,89.506 357.026 C 89.668 357.261,90.700 358.060,91.800 358.803 C 92.900 359.546,93.860 360.299,93.933 360.477 C 94.007 360.655,94.322 360.800,94.633 360.800 C 94.945 360.800,95.200 360.945,95.200 361.123 C 95.200 361.301,95.920 361.764,96.800 362.152 C 97.680 362.540,98.400 363.025,98.400 363.229 C 98.400 363.433,98.644 363.600,98.942 363.600 C 99.239 363.600,99.969 364.050,100.562 364.600 C 101.156 365.150,101.791 365.600,101.975 365.600 C 102.538 365.600,104.400 366.667,104.195 366.872 C 104.089 366.978,104.947 367.500,106.101 368.032 C 107.256 368.564,108.260 369.136,108.334 369.302 C 108.408 369.469,108.633 369.503,108.834 369.379 C 109.035 369.255,109.200 369.343,109.200 369.576 C 109.200 369.809,109.560 370.000,110.000 370.000 C 110.440 370.000,110.801 370.135,110.803 370.300 C 110.807 370.665,112.749 371.600,113.503 371.600 C 113.802 371.600,113.948 371.761,113.826 371.957 C 113.705 372.154,114.070 372.431,114.637 372.574 C 115.204 372.716,116.047 373.185,116.510 373.616 C 116.972 374.047,117.857 374.400,118.475 374.400 C 119.094 374.400,119.600 374.544,119.600 374.720 C 119.600 374.895,120.230 375.267,121.000 375.546 C 121.770 375.824,122.400 376.231,122.400 376.449 C 122.400 376.668,122.548 376.756,122.728 376.644 C 122.909 376.533,123.633 376.792,124.338 377.221 C 125.043 377.649,126.155 378.000,126.810 378.000 C 127.464 378.000,128.001 378.135,128.003 378.300 C 128.007 378.659,129.944 379.600,130.680 379.600 C 130.966 379.600,131.200 379.780,131.200 380.000 C 131.200 380.220,131.650 380.400,132.200 380.400 C 132.750 380.400,133.200 380.541,133.200 380.713 C 133.200 380.885,133.685 381.066,134.278 381.115 C 134.870 381.164,135.455 381.355,135.578 381.539 C 135.700 381.723,136.429 381.997,137.197 382.146 C 138.802 382.459,140.800 383.284,140.800 383.633 C 140.800 383.763,141.462 383.895,142.270 383.926 C 143.079 383.956,143.925 384.165,144.150 384.390 C 144.376 384.616,144.884 384.800,145.280 384.800 C 145.676 384.800,146.000 384.950,146.000 385.133 C 146.000 385.492,149.480 386.326,152.400 386.667 C 153.390 386.783,154.371 387.040,154.580 387.239 C 154.789 387.437,155.565 387.600,156.304 387.600 C 157.043 387.600,157.548 387.760,157.427 387.957 C 157.225 388.283,158.635 388.655,161.200 388.952 C 161.750 389.016,162.830 389.262,163.600 389.498 C 164.370 389.735,165.270 389.925,165.600 389.921 C 167.541 389.898,172.621 390.562,172.733 390.854 C 172.807 391.044,174.022 391.200,175.433 391.200 C 176.845 391.200,178.000 391.354,178.000 391.542 C 178.000 391.729,179.391 391.920,181.091 391.965 C 182.791 392.010,184.278 392.202,184.395 392.392 C 184.681 392.855,214.000 392.821,214.000 392.358 C 214.000 392.161,215.440 392.000,217.200 392.000 C 219.067 392.000,220.400 391.833,220.400 391.600 C 220.400 391.371,221.600 391.200,223.200 391.200 C 224.740 391.200,226.000 391.055,226.000 390.877 C 226.000 390.699,226.993 390.528,228.207 390.496 C 229.421 390.464,230.636 390.295,230.907 390.119 C 231.178 389.944,231.940 389.787,232.600 389.772 C 234.998 389.716,238.800 389.088,238.800 388.748 C 238.800 388.557,239.509 388.400,240.376 388.400 C 241.243 388.400,242.064 388.220,242.200 388.000 C 242.336 387.780,242.876 387.600,243.400 387.600 C 243.924 387.600,244.464 387.420,244.600 387.200 C 244.736 386.980,245.726 386.800,246.800 386.800 C 247.874 386.800,248.851 386.641,248.971 386.446 C 249.092 386.252,250.002 385.971,250.995 385.822 C 251.988 385.673,252.800 385.382,252.800 385.175 C 252.800 384.969,253.325 384.800,253.967 384.800 C 254.608 384.800,255.196 384.612,255.272 384.383 C 255.349 384.153,256.161 383.935,257.078 383.899 C 257.994 383.862,258.656 383.690,258.548 383.516 C 258.379 383.242,259.613 383.013,260.500 383.153 C 260.665 383.179,260.800 383.041,260.800 382.847 C 260.800 382.556,261.508 382.204,262.800 381.853 C 264.999 381.256,268.000 380.129,268.000 379.900 C 268.000 379.735,268.570 379.600,269.267 379.600 C 269.963 379.600,270.416 379.483,270.273 379.339 C 269.778 378.845,273.851 377.377,275.052 377.617 C 275.194 377.645,275.424 377.486,275.562 377.262 C 275.937 376.655,280.373 374.400,281.192 374.400 C 281.582 374.400,282.124 374.132,282.396 373.804 C 282.668 373.477,283.050 373.307,283.245 373.428 C 283.440 373.549,283.600 373.427,283.600 373.157 C 283.600 372.887,283.707 372.774,283.838 372.905 C 283.969 373.036,284.689 372.796,285.438 372.372 C 286.187 371.947,287.385 371.271,288.100 370.869 C 290.647 369.438,294.904 366.983,296.738 365.889 C 297.762 365.277,299.005 364.607,299.500 364.399 C 299.995 364.190,300.400 363.864,300.400 363.673 C 300.400 363.482,301.070 362.983,301.890 362.563 C 302.709 362.143,304.216 361.215,305.238 360.500 C 306.260 359.785,307.186 359.200,307.297 359.200 C 307.409 359.200,308.187 358.570,309.028 357.800 C 309.869 357.030,310.772 356.400,311.035 356.400 C 311.299 356.400,311.622 356.119,311.754 355.775 C 311.886 355.431,312.176 355.261,312.397 355.398 C 312.619 355.535,312.800 355.484,312.800 355.285 C 312.800 354.654,314.268 353.200,314.905 353.200 C 315.241 353.200,315.940 352.753,316.458 352.207 C 316.976 351.661,317.636 351.211,317.924 351.207 C 318.212 351.203,318.336 351.020,318.200 350.800 C 318.064 350.580,318.233 350.400,318.576 350.400 C 318.919 350.400,319.200 350.223,319.200 350.006 C 319.200 349.789,319.964 349.114,320.898 348.506 C 321.832 347.898,323.326 346.635,324.217 345.700 C 325.109 344.765,326.034 344.000,326.273 344.000 C 326.512 344.000,327.007 343.544,327.372 342.987 C 327.737 342.430,328.207 342.081,328.418 342.211 C 328.628 342.341,328.800 342.156,328.800 341.800 C 328.800 341.444,328.980 341.264,329.200 341.400 C 329.420 341.536,329.600 341.363,329.600 341.015 C 329.600 340.667,330.012 340.195,330.516 339.965 C 331.020 339.736,331.605 339.169,331.816 338.707 C 332.027 338.244,332.549 337.671,332.975 337.433 C 333.401 337.195,334.147 336.550,334.631 336.000 C 335.116 335.450,336.027 334.435,336.656 333.745 C 341.385 328.557,343.123 326.557,343.140 326.279 C 343.151 326.102,343.709 325.445,344.380 324.818 C 345.051 324.192,345.600 323.501,345.600 323.282 C 345.600 323.064,345.870 322.782,346.200 322.655 C 346.530 322.529,346.800 322.198,346.800 321.921 C 346.800 321.644,347.543 320.739,348.451 319.909 C 349.358 319.079,349.943 318.394,349.751 318.387 C 349.558 318.380,349.681 318.155,350.025 317.887 C 350.369 317.619,350.993 316.815,351.411 316.100 C 351.830 315.385,352.314 314.800,352.486 314.800 C 352.659 314.800,352.800 314.519,352.800 314.176 C 352.800 313.807,352.988 313.669,353.262 313.838 C 353.536 314.007,353.615 313.949,353.458 313.694 C 353.312 313.458,353.464 312.993,353.796 312.661 C 354.128 312.329,354.400 311.942,354.400 311.802 C 354.400 311.661,354.850 310.957,355.400 310.236 C 355.950 309.514,356.400 308.716,356.400 308.462 C 356.400 308.208,356.538 308.000,356.706 308.000 C 356.874 308.000,357.456 307.280,358.000 306.400 C 358.544 305.520,359.107 304.800,359.251 304.800 C 359.395 304.800,359.631 304.332,359.774 303.760 C 360.038 302.709,361.137 300.952,362.563 299.300 C 362.990 298.805,363.206 298.400,363.042 298.400 C 362.879 298.400,363.118 297.877,363.573 297.238 C 364.028 296.599,364.400 295.796,364.400 295.452 C 364.400 295.109,364.760 294.635,365.200 294.400 C 365.650 294.159,366.000 293.562,366.000 293.035 C 366.000 292.520,366.263 291.880,366.585 291.613 C 366.906 291.346,367.287 290.739,367.432 290.264 C 367.576 289.789,367.988 289.066,368.347 288.658 C 368.706 288.250,368.955 287.845,368.900 287.758 C 368.674 287.402,368.820 285.886,369.057 286.123 C 369.378 286.444,370.839 283.680,371.818 280.900 C 372.225 279.745,372.702 278.800,372.879 278.800 C 373.056 278.800,373.200 278.440,373.200 278.000 C 373.200 277.560,373.351 277.200,373.536 277.200 C 373.721 277.200,374.113 276.435,374.407 275.500 C 374.701 274.565,375.040 273.620,375.160 273.400 C 375.279 273.180,375.416 272.748,375.462 272.440 C 375.509 272.132,375.722 271.772,375.937 271.639 C 376.151 271.507,376.453 270.722,376.609 269.895 C 376.764 269.068,377.050 268.293,377.245 268.172 C 377.440 268.051,377.600 267.503,377.600 266.953 C 377.600 266.388,377.774 266.060,378.000 266.200 C 378.226 266.340,378.400 266.012,378.400 265.447 C 378.400 264.897,378.580 264.336,378.800 264.200 C 379.020 264.064,379.200 263.586,379.200 263.138 C 379.200 262.690,379.534 261.846,379.942 261.262 C 380.351 260.678,380.650 259.787,380.608 259.283 C 380.566 258.779,380.682 258.273,380.866 258.159 C 381.050 258.046,381.200 257.243,381.200 256.376 C 381.200 255.509,381.380 254.800,381.600 254.800 C 381.820 254.800,382.000 254.350,382.000 253.800 C 382.000 253.250,382.142 252.800,382.315 252.800 C 382.488 252.800,382.670 252.279,382.718 251.641 C 382.767 251.004,383.108 249.789,383.478 248.941 C 383.847 248.094,384.107 247.241,384.057 247.048 C 384.006 246.854,384.192 245.684,384.469 244.448 C 384.746 243.211,384.981 241.988,384.991 241.728 C 385.002 241.469,385.143 241.124,385.305 240.962 C 385.467 240.799,385.600 240.257,385.600 239.757 C 385.600 239.257,385.757 238.750,385.948 238.632 C 386.273 238.431,386.473 237.272,387.057 232.200 C 387.184 231.100,387.434 230.019,387.613 229.797 C 387.791 229.575,387.996 228.198,388.069 226.736 C 388.141 225.274,388.309 224.145,388.443 224.227 C 388.576 224.309,388.684 223.617,388.682 222.688 C 388.680 221.760,388.811 220.178,388.973 219.173 C 389.136 218.168,389.281 216.008,389.296 214.373 C 389.311 212.738,389.453 211.220,389.612 211.000 C 390.036 210.414,389.959 190.000,389.533 190.000 C 389.336 190.000,389.200 188.088,389.231 185.750 C 389.262 183.413,389.132 181.388,388.943 181.250 C 388.755 181.113,388.610 180.010,388.621 178.800 C 388.633 177.590,388.516 176.420,388.361 176.200 C 388.206 175.980,388.017 174.720,387.940 173.400 C 387.863 172.080,387.667 170.900,387.504 170.779 C 387.341 170.657,387.161 169.369,387.104 167.917 C 387.047 166.465,386.865 165.360,386.700 165.462 C 386.535 165.564,386.400 164.737,386.400 163.624 C 386.400 162.511,386.220 161.600,386.000 161.600 C 385.780 161.600,385.600 160.981,385.600 160.224 C 385.600 159.467,385.409 158.729,385.176 158.585 C 384.943 158.441,384.803 157.936,384.864 157.462 C 384.925 156.988,384.839 156.382,384.673 156.115 C 384.507 155.848,384.355 154.810,384.335 153.807 C 384.315 152.805,384.141 151.887,383.949 151.769 C 383.757 151.650,383.600 151.104,383.600 150.557 C 383.600 150.009,383.326 149.031,382.992 148.384 C 382.657 147.738,382.365 147.071,382.341 146.904 C 382.283 146.491,381.997 145.565,381.631 144.600 C 381.464 144.160,381.084 142.686,380.787 141.324 C 380.489 139.962,380.110 138.932,379.944 139.035 C 379.778 139.137,379.711 138.860,379.796 138.419 C 379.881 137.978,379.782 137.512,379.575 137.385 C 379.369 137.257,379.200 136.803,379.200 136.376 C 379.200 135.949,379.020 135.600,378.800 135.600 C 378.580 135.600,378.400 135.094,378.400 134.475 C 378.400 133.856,378.040 132.605,377.600 131.694 C 377.160 130.784,376.794 129.805,376.787 129.519 C 376.780 129.234,376.510 128.651,376.187 128.224 C 375.864 127.796,375.600 126.931,375.600 126.300 C 375.600 125.637,375.431 125.257,375.200 125.400 C 374.980 125.536,374.800 125.312,374.800 124.903 C 374.800 123.991,373.911 122.007,373.500 122.003 C 373.335 122.001,373.200 121.651,373.200 121.224 C 373.200 120.797,373.020 120.336,372.800 120.200 C 372.580 120.064,372.400 119.603,372.400 119.176 C 372.400 118.749,372.199 118.400,371.953 118.400 C 371.699 118.400,371.600 118.045,371.722 117.576 C 371.857 117.061,371.715 116.666,371.346 116.524 C 371.020 116.399,370.849 116.050,370.964 115.748 C 371.080 115.447,371.046 115.199,370.887 115.197 C 370.538 115.193,369.600 113.243,369.600 112.520 C 369.600 112.234,369.461 112.000,369.291 112.000 C 368.963 112.000,367.462 109.416,367.560 109.019 C 367.591 108.890,367.253 108.394,366.808 107.917 C 366.364 107.440,366.000 106.667,366.000 106.200 C 366.000 105.733,365.662 104.988,365.249 104.545 C 364.836 104.101,364.374 103.347,364.222 102.869 C 364.070 102.391,363.800 102.000,363.622 102.000 C 363.443 102.000,363.060 101.415,362.771 100.700 C 362.216 99.331,360.843 97.176,360.249 96.745 C 360.056 96.604,360.021 96.289,360.172 96.045 C 360.324 95.800,360.285 95.600,360.088 95.600 C 359.890 95.600,359.518 95.195,359.260 94.700 C 359.002 94.205,358.478 93.334,358.096 92.764 C 357.713 92.194,356.877 90.934,356.237 89.964 C 355.598 88.994,354.745 87.911,354.344 87.559 C 353.942 87.206,353.558 86.576,353.490 86.159 C 353.422 85.741,352.789 84.829,352.083 84.131 C 351.378 83.433,350.800 82.617,350.800 82.319 C 350.800 82.021,350.440 81.517,350.000 81.200 C 349.560 80.883,349.200 80.454,349.200 80.247 C 349.200 80.041,348.628 79.360,347.928 78.736 C 347.228 78.111,346.775 77.600,346.921 77.600 C 347.067 77.600,346.604 76.989,345.893 76.243 C 344.008 74.264,343.169 73.200,343.493 73.200 C 343.650 73.200,343.378 72.920,342.889 72.577 C 342.400 72.235,342.000 71.793,342.000 71.596 C 342.000 71.399,341.111 70.349,340.024 69.262 C 338.937 68.175,338.140 67.193,338.254 67.079 C 338.367 66.966,338.087 66.754,337.630 66.610 C 337.174 66.465,336.799 66.133,336.799 65.873 C 336.798 65.613,336.257 65.040,335.597 64.600 C 334.936 64.160,334.307 63.530,334.199 63.200 C 334.091 62.870,333.462 62.293,332.801 61.919 C 332.140 61.544,331.600 60.929,331.600 60.552 C 331.600 60.175,331.492 59.975,331.359 60.108 C 331.076 60.391,328.000 57.347,328.000 56.784 C 328.000 56.573,327.818 56.400,327.596 56.400 C 327.374 56.400,326.646 55.877,325.977 55.239 C 325.309 54.600,324.140 53.655,323.380 53.139 C 322.621 52.622,321.897 51.885,321.772 51.500 C 321.648 51.115,321.320 50.800,321.043 50.800 C 320.766 50.800,320.117 50.350,319.600 49.800 C 319.083 49.250,318.498 48.800,318.300 48.800 C 318.101 48.800,317.432 48.305,316.812 47.700 C 316.193 47.095,315.187 46.240,314.577 45.800 C 313.967 45.360,313.228 44.762,312.934 44.471 C 312.640 44.181,312.400 44.047,312.400 44.175 C 312.400 44.303,311.833 43.865,311.141 43.203 C 310.448 42.542,309.622 42.000,309.305 42.000 C 308.988 42.000,308.429 41.653,308.064 41.229 C 307.699 40.805,306.683 40.085,305.806 39.629 C 304.929 39.173,304.351 38.800,304.522 38.800 C 304.692 38.800,304.599 38.549,304.316 38.242 C 304.032 37.935,303.680 37.757,303.532 37.846 C 303.385 37.935,303.001 37.744,302.680 37.423 C 302.358 37.101,301.988 36.945,301.857 37.076 C 301.726 37.207,301.506 37.020,301.368 36.660 C 301.229 36.299,300.955 36.104,300.758 36.226 C 300.561 36.348,300.400 36.278,300.400 36.070 C 300.400 35.863,300.085 35.593,299.700 35.471 C 298.662 35.142,296.692 33.897,295.960 33.107 C 295.608 32.726,295.214 32.519,295.086 32.647 C 294.958 32.776,294.447 32.502,293.951 32.040 C 293.455 31.578,292.813 31.200,292.525 31.200 C 292.236 31.200,291.999 31.065,291.997 30.900 C 291.993 30.494,290.014 29.600,289.120 29.600 C 288.724 29.600,288.400 29.447,288.400 29.261 C 288.400 29.074,287.680 28.597,286.800 28.200 C 285.920 27.803,285.200 27.326,285.200 27.139 C 285.200 26.953,284.660 26.800,284.000 26.800 C 283.340 26.800,282.800 26.620,282.800 26.400 C 282.800 26.180,282.530 26.000,282.200 26.000 C 281.870 26.000,281.600 25.820,281.600 25.600 C 281.600 25.380,281.403 25.200,281.162 25.200 C 280.921 25.200,280.156 24.796,279.462 24.302 C 278.768 23.807,278.200 23.476,278.200 23.565 C 278.200 23.654,277.525 23.600,276.700 23.445 C 275.875 23.290,275.200 22.992,275.200 22.782 C 275.200 22.572,274.930 22.400,274.600 22.400 C 274.270 22.400,274.000 22.220,274.000 22.000 C 274.000 21.780,273.728 21.600,273.395 21.600 C 273.062 21.600,272.387 21.392,271.895 21.138 C 269.938 20.126,269.574 20.000,268.605 20.000 C 268.052 20.000,267.600 19.820,267.600 19.600 C 267.600 19.380,267.353 19.200,267.051 19.200 C 266.749 19.200,265.653 18.824,264.615 18.365 C 263.577 17.906,262.071 17.449,261.268 17.350 C 260.466 17.250,259.636 16.996,259.424 16.784 C 259.213 16.573,258.716 16.400,258.320 16.400 C 257.924 16.400,257.600 16.263,257.600 16.095 C 257.600 15.764,254.263 14.841,252.000 14.546 C 251.230 14.445,250.540 14.191,250.467 13.981 C 250.393 13.772,249.718 13.600,248.967 13.600 C 248.215 13.600,247.600 13.440,247.600 13.244 C 247.600 13.048,246.925 12.779,246.100 12.646 C 242.758 12.108,242.236 11.984,242.023 11.681 C 241.900 11.506,241.080 11.398,240.200 11.440 C 239.320 11.482,238.311 11.363,237.957 11.175 C 237.603 10.987,236.646 10.788,235.829 10.733 C 235.012 10.678,234.256 10.490,234.148 10.316 C 234.041 10.142,233.243 10.000,232.376 10.000 C 231.509 10.000,230.800 9.820,230.800 9.600 C 230.800 9.380,229.821 9.200,228.624 9.200 C 227.427 9.200,226.343 9.031,226.215 8.824 C 226.087 8.618,224.177 8.442,221.970 8.434 C 219.762 8.427,217.741 8.285,217.478 8.119 C 217.215 7.954,215.920 7.779,214.600 7.732 C 213.280 7.685,210.400 7.529,208.200 7.386 C 202.130 6.993,191.483 6.919,190.753 7.265 C 190.397 7.434,189.988 7.455,189.844 7.311 C 189.468 6.935,188.041 6.881,187.911 7.238 M213.172 29.893 C 213.297 30.062,214.400 30.223,215.622 30.252 C 216.843 30.280,218.643 30.443,219.622 30.615 C 220.600 30.786,222.147 30.886,223.059 30.836 C 223.972 30.786,224.837 30.937,224.983 31.172 C 225.128 31.408,225.946 31.600,226.800 31.600 C 227.654 31.600,228.464 31.780,228.600 32.000 C 228.736 32.220,229.917 32.400,231.224 32.400 C 232.531 32.400,233.600 32.543,233.600 32.718 C 233.600 32.893,234.275 33.081,235.100 33.136 C 235.925 33.190,236.660 33.408,236.734 33.620 C 236.808 33.832,237.012 33.916,237.188 33.808 C 237.363 33.699,238.295 33.847,239.258 34.137 C 240.220 34.427,241.215 34.595,241.467 34.511 C 241.720 34.427,242.044 34.547,242.187 34.779 C 242.330 35.010,243.157 35.200,244.024 35.200 C 244.891 35.200,245.600 35.341,245.600 35.513 C 245.600 35.685,246.087 35.866,246.682 35.915 C 247.278 35.964,247.944 36.184,248.162 36.402 C 248.381 36.621,248.985 36.800,249.504 36.800 C 250.031 36.800,250.338 36.977,250.200 37.200 C 250.064 37.420,250.293 37.600,250.710 37.600 C 251.126 37.600,251.591 37.725,251.744 37.877 C 251.896 38.029,252.331 38.202,252.710 38.262 C 254.051 38.471,255.401 38.742,255.500 38.820 C 255.555 38.864,255.765 38.923,255.967 38.950 C 256.168 38.977,256.468 39.135,256.633 39.300 C 256.798 39.465,257.180 39.600,257.481 39.600 C 257.782 39.600,258.499 39.908,259.074 40.285 C 259.649 40.662,260.400 41.012,260.743 41.062 C 261.086 41.112,261.733 41.328,262.183 41.541 C 262.632 41.754,263.854 42.260,264.899 42.664 C 265.943 43.069,266.798 43.535,266.799 43.700 C 266.799 43.865,267.160 44.000,267.600 44.000 C 268.040 44.000,268.400 44.150,268.400 44.333 C 268.400 44.517,268.650 44.667,268.956 44.667 C 269.557 44.667,271.486 45.588,273.400 46.789 C 274.060 47.203,274.971 47.555,275.425 47.571 C 275.878 47.587,276.636 47.960,277.108 48.400 C 277.580 48.840,278.154 49.200,278.383 49.200 C 278.612 49.200,278.801 49.335,278.803 49.500 C 278.807 49.863,280.747 50.800,281.496 50.800 C 281.792 50.800,282.431 51.176,282.917 51.636 C 283.403 52.096,284.475 52.768,285.300 53.130 C 286.125 53.493,286.800 53.926,286.800 54.094 C 286.800 54.262,287.070 54.400,287.400 54.400 C 287.730 54.400,288.000 54.551,288.000 54.736 C 288.000 54.920,288.718 55.415,289.595 55.836 C 290.473 56.256,291.193 56.735,291.195 56.900 C 291.198 57.065,291.430 57.200,291.712 57.200 C 291.993 57.200,292.476 57.550,292.785 57.979 C 293.093 58.407,293.469 58.681,293.619 58.588 C 293.770 58.495,294.215 58.775,294.609 59.209 C 295.002 59.644,295.521 60.000,295.762 60.001 C 296.003 60.001,296.830 60.541,297.600 61.200 C 298.370 61.859,299.146 62.399,299.324 62.399 C 299.502 62.400,299.519 62.608,299.362 62.862 C 299.179 63.157,299.253 63.215,299.566 63.021 C 299.841 62.851,300.350 63.004,300.728 63.371 C 301.097 63.731,301.833 64.379,302.361 64.812 C 302.890 65.245,303.160 65.608,302.961 65.618 C 302.763 65.628,303.073 65.853,303.651 66.118 C 304.985 66.730,307.477 68.763,310.493 71.700 C 311.792 72.965,313.018 74.000,313.218 74.000 C 313.548 74.000,314.622 75.074,316.710 77.493 C 317.134 77.984,317.598 78.269,317.741 78.126 C 317.883 77.983,318.000 78.177,318.000 78.557 C 318.000 78.937,318.147 79.156,318.327 79.045 C 318.507 78.934,318.912 79.215,319.227 79.670 C 319.542 80.126,320.025 80.733,320.300 81.020 C 320.575 81.308,320.800 81.705,320.800 81.904 C 320.800 82.102,321.250 82.506,321.800 82.800 C 322.350 83.094,322.800 83.562,322.800 83.839 C 322.800 84.115,323.244 84.691,323.786 85.118 C 324.329 85.545,324.659 86.008,324.520 86.147 C 324.381 86.286,324.507 86.400,324.802 86.400 C 325.620 86.400,326.800 87.632,326.800 88.486 C 326.800 88.965,326.973 89.140,327.268 88.958 C 327.583 88.764,327.652 88.887,327.481 89.334 C 327.291 89.827,327.447 90.000,328.079 90.000 C 328.549 90.000,328.817 90.117,328.674 90.259 C 328.531 90.402,328.788 90.843,329.244 91.238 C 329.700 91.634,329.964 92.134,329.831 92.350 C 329.698 92.566,329.951 92.858,330.395 92.998 C 330.839 93.139,331.555 94.007,331.986 94.927 C 332.418 95.847,332.777 96.425,332.785 96.211 C 332.793 95.997,333.109 96.267,333.486 96.811 C 334.348 98.054,334.827 98.666,335.661 99.589 C 336.024 99.992,336.450 100.729,336.608 101.227 C 336.767 101.725,337.279 102.528,337.748 103.011 C 338.765 104.061,340.988 107.675,340.878 108.100 C 340.835 108.265,340.983 108.400,341.206 108.400 C 341.430 108.400,341.913 109.030,342.281 109.800 C 342.648 110.570,343.095 111.200,343.274 111.200 C 343.453 111.200,343.600 111.462,343.600 111.782 C 343.600 112.102,344.050 113.028,344.600 113.838 C 345.150 114.649,345.600 115.523,345.600 115.780 C 345.600 116.038,345.915 116.598,346.300 117.025 C 346.685 117.451,347.246 118.340,347.547 119.000 C 347.847 119.660,348.252 120.513,348.447 120.895 C 348.641 121.277,348.800 121.867,348.800 122.207 C 348.800 122.547,349.070 122.929,349.400 123.055 C 349.730 123.182,350.000 123.626,350.000 124.043 C 350.000 124.459,350.180 124.800,350.400 124.800 C 350.620 124.800,350.800 125.129,350.800 125.532 C 350.800 125.935,351.249 127.150,351.798 128.232 C 352.347 129.314,352.797 130.425,352.798 130.700 C 352.799 130.975,352.947 131.200,353.128 131.200 C 353.308 131.200,353.700 132.100,354.000 133.200 C 354.300 134.300,354.692 135.200,354.872 135.200 C 355.053 135.200,355.200 135.549,355.200 135.976 C 355.200 136.403,355.380 136.864,355.600 137.000 C 355.820 137.136,356.000 137.597,356.000 138.024 C 356.000 138.451,356.141 138.800,356.313 138.800 C 356.485 138.800,356.664 139.260,356.710 139.821 C 356.757 140.383,356.969 141.169,357.183 141.569 C 357.397 141.968,357.448 142.418,357.298 142.569 C 357.147 142.720,357.252 142.985,357.532 143.158 C 357.811 143.331,358.069 143.861,358.105 144.336 C 358.141 144.811,358.312 145.200,358.485 145.200 C 358.658 145.200,358.800 145.560,358.800 146.000 C 358.800 146.440,358.980 146.800,359.200 146.800 C 359.420 146.800,359.600 147.340,359.600 148.000 C 359.600 148.660,359.763 149.200,359.961 149.200 C 360.160 149.200,360.410 150.055,360.516 151.100 C 360.736 153.268,360.901 154.006,361.313 154.664 C 361.472 154.920,361.642 155.595,361.689 156.164 C 361.736 156.734,361.915 157.200,362.087 157.200 C 362.259 157.200,362.400 157.729,362.400 158.376 C 362.400 159.023,362.580 159.664,362.800 159.800 C 363.020 159.936,363.200 160.847,363.200 161.824 C 363.200 162.801,363.380 163.600,363.600 163.600 C 363.820 163.600,364.000 164.320,364.000 165.200 C 364.000 166.080,364.155 166.800,364.344 166.800 C 364.534 166.800,364.816 167.925,364.972 169.300 C 365.128 170.675,365.342 172.250,365.447 172.800 C 365.806 174.666,366.294 180.596,366.154 181.381 C 366.078 181.810,366.179 182.263,366.380 182.387 C 367.090 182.827,367.956 206.040,367.295 206.938 C 367.108 207.192,366.904 209.290,366.841 211.599 C 366.778 213.909,366.544 215.911,366.320 216.049 C 366.056 216.213,366.076 216.400,366.377 216.586 C 366.652 216.756,366.699 217.059,366.493 217.336 C 366.303 217.591,366.101 219.128,366.044 220.752 C 365.988 222.375,365.799 224.085,365.626 224.552 C 365.452 225.018,365.360 225.714,365.420 226.098 C 365.480 226.483,365.365 226.898,365.164 227.022 C 364.964 227.146,364.800 228.126,364.800 229.200 C 364.800 230.274,364.643 231.250,364.452 231.368 C 364.260 231.486,363.979 232.532,363.827 233.692 C 363.128 239.022,362.566 241.200,361.887 241.200 C 361.656 241.200,361.570 241.304,361.697 241.430 C 361.823 241.557,361.752 242.232,361.539 242.930 C 361.325 243.629,361.075 244.650,360.983 245.200 C 360.891 245.750,360.703 246.875,360.564 247.700 C 360.426 248.525,360.152 249.200,359.956 249.200 C 359.760 249.200,359.600 249.740,359.600 250.400 C 359.600 251.060,359.420 251.600,359.200 251.600 C 358.980 251.600,358.800 251.926,358.800 252.325 C 358.800 252.724,358.458 253.759,358.039 254.625 C 357.621 255.491,357.164 256.830,357.024 257.600 C 356.663 259.580,356.410 260.322,355.184 263.000 C 353.149 267.444,352.400 269.275,352.400 269.811 C 352.400 270.135,352.259 270.400,352.087 270.400 C 351.915 270.400,351.535 271.210,351.243 272.200 C 350.951 273.190,350.552 274.000,350.356 274.000 C 350.160 274.000,350.000 274.210,350.000 274.466 C 350.000 275.212,348.677 278.000,348.323 278.000 C 348.145 278.000,348.000 278.450,348.000 279.000 C 348.000 279.550,347.863 280.000,347.695 280.000 C 347.527 280.000,347.212 280.350,346.995 280.777 C 346.778 281.205,345.993 282.749,345.252 284.208 C 344.510 285.668,343.656 286.957,343.354 287.073 C 343.052 287.189,342.895 287.430,343.006 287.610 C 343.117 287.789,342.936 288.207,342.604 288.539 C 342.272 288.871,342.000 289.316,342.000 289.527 C 342.000 289.738,341.370 290.826,340.600 291.945 C 339.830 293.065,339.200 294.176,339.200 294.414 C 339.200 294.652,339.020 294.736,338.800 294.600 C 338.580 294.464,338.400 294.645,338.400 295.003 C 338.400 295.635,336.503 298.465,335.900 298.733 C 335.735 298.807,335.600 299.197,335.600 299.600 C 335.600 300.003,335.465 300.393,335.300 300.467 C 334.799 300.689,332.400 303.924,332.400 304.377 C 332.400 304.609,332.130 304.800,331.800 304.800 C 331.470 304.800,331.200 304.935,331.200 305.100 C 331.199 305.265,330.757 305.940,330.217 306.600 C 329.676 307.260,328.911 308.231,328.517 308.757 C 328.123 309.284,327.395 310.147,326.900 310.675 C 326.405 311.204,326.000 311.738,326.000 311.862 C 326.000 312.509,315.945 322.485,315.634 322.146 C 315.505 322.006,315.625 321.810,315.900 321.712 C 316.175 321.614,316.400 321.278,316.400 320.967 C 316.400 320.655,316.591 320.400,316.824 320.400 C 317.057 320.400,317.148 320.239,317.026 320.042 C 316.904 319.845,317.029 319.595,317.302 319.486 C 317.576 319.377,318.158 318.593,318.596 317.744 C 319.034 316.895,319.497 316.110,319.625 316.000 C 319.754 315.890,319.987 315.530,320.145 315.200 C 320.631 314.182,321.407 312.914,321.931 312.283 C 322.205 311.952,322.497 311.348,322.579 310.941 C 322.662 310.533,323.554 308.580,324.562 306.600 C 325.570 304.620,326.396 302.606,326.397 302.124 C 326.399 301.642,326.580 301.136,326.800 301.000 C 327.020 300.864,327.200 300.303,327.200 299.753 C 327.200 299.188,327.374 298.860,327.600 299.000 C 327.827 299.140,328.000 298.804,328.000 298.224 C 328.000 297.661,328.180 297.200,328.400 297.200 C 328.620 297.200,328.800 296.570,328.800 295.800 C 328.800 295.030,328.941 294.400,329.113 294.400 C 329.285 294.400,329.464 293.905,329.512 293.300 C 329.559 292.695,329.799 291.706,330.046 291.103 C 330.293 290.499,330.400 289.644,330.285 289.203 C 330.169 288.761,330.218 288.400,330.394 288.400 C 330.733 288.400,331.104 286.666,331.462 283.400 C 331.583 282.300,331.817 281.220,331.982 281.000 C 332.388 280.459,332.399 264.705,331.994 264.200 C 331.818 263.980,331.573 262.630,331.450 261.200 C 331.025 256.251,330.721 254.400,330.334 254.400 C 330.121 254.400,330.056 254.055,330.189 253.634 C 330.323 253.212,330.245 252.752,330.016 252.610 C 329.787 252.469,329.600 251.655,329.600 250.802 C 329.600 249.950,329.391 248.745,329.136 248.126 C 328.881 247.507,328.705 246.789,328.746 246.530 C 328.788 246.272,328.636 245.946,328.411 245.807 C 328.185 245.667,328.000 245.113,328.000 244.576 C 328.000 244.039,327.820 243.600,327.600 243.600 C 327.380 243.600,327.200 243.240,327.200 242.800 C 327.200 242.360,327.032 242.000,326.827 242.000 C 326.621 242.000,326.470 241.424,326.490 240.721 C 326.510 240.018,326.328 239.376,326.086 239.295 C 325.843 239.214,325.751 238.872,325.881 238.534 C 326.010 238.196,325.906 237.789,325.649 237.630 C 325.392 237.471,325.113 236.994,325.030 236.571 C 324.947 236.147,324.227 234.575,323.430 233.077 C 322.633 231.579,322.086 230.184,322.214 229.977 C 322.342 229.770,322.257 229.600,322.024 229.600 C 321.791 229.600,321.597 229.195,321.594 228.700 C 321.589 227.972,321.514 227.915,321.200 228.400 C 320.817 228.993,320.589 228.535,320.753 227.500 C 320.779 227.335,320.620 227.200,320.400 227.200 C 320.180 227.200,320.000 226.829,320.000 226.376 C 320.000 225.923,319.820 225.664,319.600 225.800 C 319.380 225.936,319.200 225.801,319.200 225.499 C 319.200 225.198,318.840 224.564,318.400 224.092 C 317.960 223.620,317.600 223.068,317.600 222.866 C 317.600 222.663,317.330 222.274,317.000 222.000 C 316.670 221.726,316.400 221.183,316.400 220.794 C 316.400 220.404,316.149 219.989,315.842 219.872 C 315.536 219.754,314.874 218.835,314.372 217.829 C 313.869 216.823,313.310 216.000,313.129 216.000 C 312.948 216.000,312.800 215.761,312.800 215.470 C 312.800 215.178,312.332 214.503,311.761 213.970 C 311.190 213.436,310.363 212.300,309.924 211.444 C 309.485 210.588,308.783 209.519,308.363 209.068 C 307.943 208.618,307.600 208.041,307.600 207.787 C 307.600 207.532,307.240 206.998,306.800 206.600 C 306.360 206.202,306.000 205.712,306.000 205.511 C 306.000 205.311,305.550 204.557,305.000 203.836 C 304.450 203.114,304.000 202.350,304.000 202.138 C 304.000 201.925,303.685 201.393,303.300 200.955 C 302.311 199.830,301.600 198.514,301.600 197.805 C 301.600 197.472,301.420 197.200,301.200 197.200 C 300.980 197.200,300.819 197.065,300.843 196.900 C 300.930 196.296,300.297 194.800,299.953 194.800 C 299.759 194.800,299.600 194.476,299.600 194.080 C 299.600 193.684,299.402 193.162,299.160 192.920 C 298.918 192.678,298.720 191.831,298.720 191.039 C 298.720 190.246,298.558 189.498,298.360 189.375 C 298.162 189.253,298.000 188.653,298.000 188.043 C 298.000 187.433,297.878 186.811,297.728 186.661 C 297.343 186.276,297.302 176.784,297.684 176.548 C 297.858 176.441,298.002 175.868,298.004 175.276 C 298.010 173.958,299.036 170.480,299.632 169.762 C 299.871 169.473,300.376 168.643,300.753 167.918 C 301.928 165.658,302.569 164.677,303.508 163.696 C 304.007 163.175,304.703 162.310,305.054 161.774 C 305.405 161.238,305.863 160.800,306.073 160.800 C 306.282 160.800,307.027 160.212,307.727 159.494 C 308.427 158.776,309.540 157.925,310.200 157.602 C 310.860 157.280,311.940 156.625,312.600 156.147 C 314.009 155.127,316.648 153.982,316.933 154.266 C 317.042 154.376,317.552 154.226,318.066 153.934 C 318.580 153.642,319.180 153.387,319.400 153.367 C 319.620 153.347,320.430 153.200,321.200 153.042 C 321.970 152.883,322.910 152.709,323.288 152.655 C 323.667 152.601,324.102 152.431,324.255 152.278 C 324.408 152.125,325.133 152.000,325.867 152.000 C 326.600 152.000,327.200 151.820,327.200 151.600 C 327.200 151.380,327.391 151.200,327.624 151.200 C 327.857 151.200,328.827 150.615,329.778 149.900 C 330.730 149.185,331.878 148.343,332.330 148.029 C 332.783 147.715,333.142 147.355,333.129 147.229 C 333.048 146.442,333.256 145.987,333.600 146.200 C 333.820 146.336,334.000 146.182,334.000 145.857 C 334.000 145.532,334.225 145.192,334.500 145.100 C 334.863 144.980,335.020 143.429,335.074 139.459 C 335.119 136.141,335.001 134.076,334.774 134.216 C 334.568 134.343,334.400 134.166,334.400 133.822 C 334.400 133.057,332.986 130.348,332.723 130.610 C 332.620 130.714,332.295 130.352,332.003 129.806 C 331.711 129.260,331.157 128.713,330.773 128.591 C 330.388 128.469,329.973 128.106,329.850 127.785 C 329.726 127.463,329.281 127.200,328.862 127.200 C 328.442 127.200,327.874 126.930,327.600 126.600 C 327.326 126.270,326.775 126.000,326.375 126.000 C 325.975 126.000,325.548 125.840,325.427 125.644 C 324.884 124.766,309.200 124.014,309.200 124.866 C 309.200 125.050,308.750 125.200,308.200 125.200 C 307.650 125.200,307.200 125.380,307.200 125.600 C 307.200 125.820,306.705 126.004,306.100 126.009 C 305.495 126.014,304.250 126.358,303.333 126.775 C 302.415 127.191,301.582 127.448,301.480 127.346 C 301.279 127.146,298.850 128.433,297.138 129.647 C 296.554 130.061,295.787 130.400,295.433 130.400 C 294.879 130.400,292.232 132.282,289.379 134.703 C 288.928 135.086,288.343 135.445,288.079 135.500 C 287.446 135.632,286.000 137.092,286.000 137.600 C 286.000 137.820,285.833 138.000,285.630 138.000 C 285.132 138.000,281.200 141.913,281.200 142.408 C 281.200 142.624,280.930 142.800,280.600 142.800 C 280.270 142.800,280.000 143.070,280.000 143.400 C 280.000 143.730,279.790 144.000,279.533 144.000 C 279.277 144.000,279.172 144.105,279.300 144.233 C 279.428 144.362,279.233 144.799,278.867 145.205 C 277.604 146.602,277.200 147.167,277.200 147.534 C 277.200 147.736,276.916 148.138,276.569 148.426 C 276.222 148.714,275.499 149.816,274.962 150.875 C 274.426 151.934,273.818 152.800,273.611 152.800 C 273.405 152.800,273.118 153.428,272.974 154.196 C 272.830 154.965,272.552 155.494,272.356 155.373 C 272.160 155.252,272.000 155.523,272.000 155.976 C 272.000 156.429,271.820 156.800,271.600 156.800 C 271.380 156.800,271.200 157.137,271.200 157.550 C 271.200 157.962,270.914 159.087,270.565 160.050 C 270.216 161.012,269.883 161.980,269.825 162.200 C 269.767 162.420,269.536 163.050,269.312 163.600 C 269.088 164.150,268.984 164.807,269.080 165.060 C 269.176 165.312,269.062 165.638,268.827 165.783 C 268.592 165.928,268.400 166.991,268.400 168.144 C 268.400 169.297,268.237 170.411,268.038 170.620 C 267.013 171.696,267.005 188.731,268.029 189.780 C 268.233 189.989,268.400 191.283,268.400 192.656 C 268.400 194.029,268.560 195.252,268.756 195.373 C 268.951 195.494,269.199 196.179,269.306 196.896 C 269.527 198.385,270.746 201.923,271.647 203.695 C 271.841 204.077,272.000 204.754,272.000 205.200 C 272.000 206.045,272.644 207.381,273.500 208.313 C 274.014 208.873,274.150 209.400,274.021 210.340 C 273.980 210.637,274.126 210.769,274.345 210.634 C 274.564 210.498,274.973 211.020,275.252 211.794 C 275.532 212.567,275.871 213.200,276.006 213.200 C 276.140 213.200,276.498 213.830,276.800 214.600 C 277.102 215.370,277.476 216.000,277.631 216.000 C 277.786 216.000,278.030 216.466,278.173 217.034 C 278.316 217.603,278.887 218.524,279.443 219.080 C 279.999 219.636,280.623 220.475,280.829 220.945 C 281.035 221.415,281.829 222.610,282.594 223.600 C 283.358 224.590,284.277 225.924,284.636 226.565 C 284.994 227.205,285.718 228.193,286.244 228.760 C 286.770 229.328,287.200 229.936,287.200 230.113 C 287.200 230.458,287.430 230.773,288.981 232.550 C 289.533 233.183,289.888 233.858,289.769 234.050 C 289.650 234.243,289.731 234.400,289.949 234.400 C 290.168 234.400,290.471 234.794,290.624 235.277 C 290.777 235.759,291.419 236.704,292.049 237.377 C 292.680 238.049,293.197 238.915,293.198 239.300 C 293.199 239.685,293.372 240.000,293.582 240.000 C 293.792 240.000,294.079 240.614,294.220 241.365 C 294.361 242.116,294.815 243.095,295.230 243.540 C 295.644 243.985,296.025 244.893,296.075 245.557 C 296.126 246.222,296.251 246.682,296.353 246.581 C 296.847 246.086,299.926 254.521,299.674 255.681 C 299.640 255.836,299.970 256.796,300.406 257.815 C 300.843 258.833,301.200 260.271,301.200 261.010 C 301.200 261.748,301.380 262.464,301.600 262.600 C 301.843 262.750,302.000 265.730,302.000 270.200 C 302.000 274.670,301.843 277.650,301.600 277.800 C 301.380 277.936,301.200 278.656,301.200 279.400 C 301.200 280.144,301.020 280.864,300.800 281.000 C 300.580 281.136,300.400 281.689,300.400 282.229 C 300.400 282.769,300.242 283.523,300.049 283.905 C 299.595 284.804,298.937 287.026,298.599 288.800 C 298.264 290.560,297.499 292.400,297.102 292.400 C 296.936 292.400,296.800 292.771,296.800 293.224 C 296.800 293.677,296.620 293.936,296.400 293.800 C 296.174 293.660,296.000 293.991,296.000 294.562 C 296.000 295.582,294.166 299.287,293.539 299.533 C 293.353 299.607,293.200 299.993,293.200 300.391 C 293.200 300.789,292.705 301.658,292.100 302.322 C 291.495 302.986,290.941 303.770,290.870 304.064 C 290.798 304.359,290.572 304.660,290.368 304.734 C 290.163 304.808,290.076 304.999,290.174 305.158 C 290.273 305.318,289.807 306.068,289.139 306.824 L 287.924 308.200 288.215 304.400 C 288.661 298.573,288.768 285.171,288.381 283.600 C 288.192 282.830,287.996 281.255,287.947 280.100 C 287.897 278.945,287.709 278.000,287.529 278.000 C 287.348 278.000,287.200 277.190,287.200 276.200 C 287.200 275.210,287.020 274.400,286.800 274.400 C 286.575 274.400,286.400 273.278,286.400 271.833 C 286.400 270.422,286.228 269.207,286.018 269.133 C 285.807 269.060,285.590 268.325,285.536 267.500 C 285.481 266.675,285.293 266.000,285.118 266.000 C 284.943 266.000,284.800 265.668,284.800 265.263 C 284.800 264.857,284.455 263.522,284.033 262.296 C 283.611 261.070,283.371 259.962,283.500 259.834 C 283.628 259.705,283.523 259.600,283.267 259.600 C 283.010 259.600,282.800 259.075,282.800 258.433 C 282.800 257.792,282.658 257.207,282.486 257.133 C 281.941 256.902,279.516 251.660,279.766 251.255 C 279.898 251.042,279.863 250.808,279.689 250.734 C 279.211 250.531,277.600 247.634,277.600 246.977 C 277.600 246.660,277.440 246.400,277.243 246.400 C 277.047 246.400,276.774 245.950,276.636 245.400 C 276.498 244.850,276.208 244.400,275.992 244.400 C 275.777 244.400,275.596 244.175,275.591 243.900 C 275.586 243.625,275.230 242.950,274.800 242.400 C 274.370 241.850,274.014 241.107,274.009 240.748 C 274.004 240.390,273.274 239.348,272.386 238.433 C 271.498 237.518,270.872 236.608,270.994 236.410 C 271.117 236.211,270.493 235.311,269.608 234.409 C 268.724 233.506,268.000 232.602,268.000 232.400 C 268.000 232.198,267.276 231.294,266.392 230.391 C 265.507 229.489,264.880 228.595,264.997 228.404 C 265.115 228.214,264.849 227.943,264.406 227.802 C 263.963 227.661,263.600 227.384,263.600 227.187 C 263.600 226.989,262.430 225.652,261.000 224.215 C 259.570 222.778,258.400 221.422,258.400 221.201 C 258.400 220.980,258.214 220.800,257.987 220.800 C 257.408 220.800,254.801 218.133,255.093 217.840 C 255.225 217.708,255.042 217.600,254.687 217.600 C 254.331 217.600,253.856 217.285,253.632 216.900 C 253.408 216.515,253.219 216.344,253.212 216.521 C 253.205 216.697,252.774 216.382,252.254 215.821 C 251.734 215.259,251.117 214.800,250.883 214.800 C 250.649 214.800,250.104 214.350,249.671 213.800 C 249.239 213.250,248.639 212.800,248.339 212.800 C 248.038 212.800,247.568 212.440,247.293 212.000 C 247.018 211.560,246.607 211.200,246.380 211.200 C 245.942 211.200,245.340 210.766,243.744 209.300 C 243.205 208.805,242.602 208.400,242.404 208.400 C 242.207 208.400,241.810 208.085,241.523 207.700 C 241.235 207.315,240.743 206.944,240.428 206.876 C 240.114 206.808,239.394 206.431,238.828 206.039 C 238.263 205.647,236.855 204.819,235.700 204.199 C 234.545 203.580,233.600 202.921,233.600 202.736 C 233.600 202.551,233.343 202.400,233.029 202.400 C 232.714 202.400,232.219 202.175,231.929 201.900 C 231.638 201.625,230.680 201.148,229.800 200.841 C 228.920 200.533,227.909 199.948,227.553 199.541 C 227.197 199.133,226.683 198.800,226.411 198.800 C 226.139 198.800,225.020 198.350,223.925 197.800 C 222.830 197.250,221.697 196.800,221.408 196.800 C 221.118 196.800,219.886 196.277,218.670 195.637 C 217.454 194.997,216.370 194.564,216.260 194.673 C 216.150 194.783,215.192 194.436,214.130 193.903 C 213.069 193.370,212.020 192.881,211.800 192.816 C 211.580 192.751,211.220 192.646,211.000 192.583 C 209.378 192.114,206.636 190.984,206.258 190.629 C 206.006 190.392,204.765 189.682,203.500 189.051 C 202.235 188.421,201.200 187.746,201.200 187.552 C 201.200 187.359,200.919 187.200,200.576 187.200 C 200.233 187.200,200.064 187.020,200.200 186.800 C 200.336 186.580,200.289 186.400,200.096 186.400 C 199.019 186.400,195.881 182.373,196.736 182.088 C 196.980 182.007,197.242 181.999,197.319 182.070 C 197.395 182.142,197.774 181.883,198.161 181.496 C 198.548 181.109,199.017 180.887,199.203 181.002 C 199.390 181.117,199.654 180.862,199.789 180.434 C 199.935 179.975,200.563 179.540,201.318 179.374 C 202.023 179.219,202.835 178.757,203.123 178.346 C 203.410 177.936,203.955 177.600,204.334 177.600 C 204.713 177.600,205.283 177.240,205.600 176.800 C 205.917 176.360,206.507 176.000,206.912 176.000 C 207.316 176.000,207.536 175.820,207.400 175.600 C 207.264 175.380,207.322 175.200,207.528 175.200 C 208.117 175.200,215.622 167.755,215.328 167.462 C 215.184 167.318,215.367 167.200,215.733 167.200 C 216.100 167.200,216.400 166.924,216.400 166.586 C 216.400 165.856,217.493 164.061,218.490 163.153 C 218.880 162.797,219.200 162.188,219.200 161.800 C 219.200 161.412,219.515 160.803,219.900 160.447 C 220.285 160.091,220.663 159.440,220.740 159.000 C 220.817 158.560,221.041 158.100,221.238 157.978 C 221.554 157.781,221.943 156.351,222.671 152.700 C 222.792 152.095,223.050 151.600,223.245 151.600 C 223.440 151.600,223.600 151.071,223.600 150.424 C 223.600 149.777,223.780 149.136,224.000 149.000 C 224.220 148.864,224.400 147.953,224.400 146.976 C 224.400 145.999,224.562 145.200,224.761 145.200 C 225.620 145.200,224.737 130.797,223.666 127.330 C 223.450 126.632,223.377 125.957,223.503 125.830 C 223.630 125.704,223.544 125.600,223.312 125.600 C 223.080 125.600,222.797 125.105,222.683 124.500 C 222.171 121.781,221.928 120.911,221.319 119.600 C 220.960 118.830,220.667 117.975,220.667 117.700 C 220.667 117.425,220.517 117.200,220.333 117.200 C 220.150 117.200,220.000 116.840,220.000 116.400 C 220.000 115.960,219.820 115.600,219.600 115.600 C 219.380 115.600,219.200 115.139,219.200 114.576 C 219.200 113.897,219.043 113.650,218.732 113.842 C 218.422 114.034,218.346 113.917,218.508 113.495 C 218.643 113.145,218.495 112.645,218.181 112.384 C 217.866 112.123,217.691 111.777,217.791 111.615 C 217.891 111.453,217.608 110.930,217.162 110.452 C 216.099 109.310,215.356 107.201,215.896 106.857 C 216.118 106.716,216.331 104.989,216.368 103.020 C 216.405 101.051,216.597 99.245,216.795 99.006 C 217.260 98.445,217.291 76.118,216.827 75.251 C 216.634 74.889,216.423 73.785,216.359 72.796 C 216.197 70.280,214.486 67.600,213.042 67.600 C 212.715 67.600,212.336 67.420,212.200 67.200 C 212.064 66.980,211.344 66.800,210.600 66.800 C 209.856 66.800,209.136 66.980,209.000 67.200 C 208.864 67.420,208.303 67.600,207.753 67.600 C 207.203 67.600,206.851 67.760,206.972 67.955 C 207.149 68.242,205.850 68.844,205.245 68.755 C 205.159 68.742,204.978 68.913,204.841 69.134 C 204.704 69.355,204.339 69.595,204.030 69.668 C 203.720 69.741,203.168 70.070,202.802 70.400 C 201.175 71.868,199.971 72.800,199.697 72.803 C 199.534 72.805,198.737 73.435,197.927 74.203 C 197.116 74.972,196.306 75.600,196.127 75.600 C 195.947 75.600,195.002 76.329,194.027 77.220 C 193.052 78.112,191.747 79.141,191.127 79.507 C 190.506 79.873,189.910 80.454,189.801 80.797 C 189.692 81.141,189.212 81.687,188.735 82.011 C 188.258 82.335,187.178 83.275,186.334 84.100 C 185.490 84.925,184.670 85.600,184.512 85.600 C 184.156 85.600,182.002 88.087,182.001 88.500 C 182.000 88.665,181.807 88.800,181.571 88.800 C 181.336 88.800,180.853 89.090,180.499 89.444 C 180.006 89.936,179.426 90.028,178.028 89.832 C 177.022 89.691,175.525 89.553,174.700 89.526 C 173.875 89.499,173.200 89.350,173.200 89.194 C 173.200 89.038,170.140 88.877,166.400 88.835 C 162.660 88.793,159.600 88.912,159.600 89.098 C 159.600 89.284,158.925 89.482,158.101 89.537 C 157.276 89.593,156.449 89.791,156.263 89.977 C 155.838 90.402,153.600 88.104,153.599 87.241 C 153.598 86.888,153.059 86.240,152.400 85.800 C 151.741 85.360,151.202 84.803,151.201 84.561 C 151.201 84.320,150.844 83.712,150.408 83.210 C 149.973 82.708,149.693 82.173,149.787 82.021 C 149.881 81.870,149.607 81.493,149.179 81.185 C 148.750 80.876,148.400 80.438,148.399 80.212 C 148.399 79.985,147.869 79.181,147.222 78.424 C 146.576 77.668,146.137 76.903,146.247 76.724 C 146.357 76.546,146.257 76.400,146.024 76.400 C 145.791 76.400,145.600 76.132,145.600 75.803 C 145.600 75.475,145.240 74.982,144.800 74.707 C 144.360 74.432,144.000 74.049,144.000 73.855 C 144.000 73.288,140.397 68.400,139.980 68.400 C 139.771 68.400,139.600 68.153,139.600 67.850 C 139.600 67.256,135.053 62.400,134.497 62.400 C 134.312 62.400,133.946 62.186,133.684 61.924 C 133.214 61.454,132.864 61.349,130.686 61.022 C 129.383 60.826,126.543 62.177,125.469 63.502 C 125.067 63.998,124.517 64.628,124.245 64.902 C 123.974 65.176,122.881 67.020,121.816 69.000 C 120.752 70.980,119.726 72.660,119.538 72.734 C 119.349 72.808,119.297 73.033,119.421 73.234 C 119.545 73.435,119.507 73.825,119.335 74.100 C 119.164 74.375,118.968 74.960,118.900 75.400 C 118.832 75.840,118.602 76.260,118.388 76.333 C 118.175 76.407,118.000 76.902,118.000 77.433 C 118.000 77.965,117.820 78.400,117.600 78.400 C 117.380 78.400,117.200 78.760,117.200 79.200 C 117.200 79.640,117.009 80.000,116.776 80.000 C 116.543 80.000,116.462 80.176,116.595 80.392 C 116.728 80.607,116.629 81.172,116.375 81.647 C 116.121 82.122,115.841 83.070,115.753 83.755 C 115.516 85.595,114.246 89.600,113.900 89.600 C 113.735 89.600,113.600 90.129,113.600 90.776 C 113.600 91.423,113.441 92.051,113.246 92.171 C 112.899 92.386,112.633 93.475,112.182 96.531 C 112.058 97.373,111.781 98.523,111.567 99.087 C 111.353 99.650,111.271 100.204,111.385 100.319 C 111.500 100.433,111.423 100.732,111.214 100.983 C 111.006 101.233,110.790 102.118,110.734 102.947 C 110.678 103.777,110.490 104.544,110.316 104.652 C 110.142 104.759,110.000 105.276,110.000 105.800 C 110.000 106.324,109.844 106.849,109.653 106.967 C 109.462 107.085,109.282 108.210,109.253 109.467 C 109.224 110.724,109.045 111.853,108.855 111.976 C 108.666 112.099,108.416 112.740,108.300 113.400 C 108.184 114.060,107.789 115.590,107.422 116.800 C 107.054 118.010,106.652 119.942,106.528 121.093 C 106.404 122.245,106.144 123.089,105.951 122.970 C 105.758 122.850,105.600 123.123,105.600 123.576 C 105.600 124.029,105.401 124.400,105.157 124.400 C 104.914 124.400,104.809 124.648,104.926 124.950 C 105.042 125.253,104.892 125.973,104.592 126.550 C 104.293 127.128,104.122 127.600,104.214 127.600 C 104.305 127.600,104.189 128.095,103.955 128.700 C 103.579 129.672,103.383 130.352,103.065 131.800 C 103.017 132.020,102.837 132.425,102.665 132.700 C 102.493 132.975,102.464 133.380,102.600 133.600 C 102.736 133.820,102.690 134.000,102.497 134.000 C 102.304 134.000,101.726 135.395,101.213 137.100 C 100.699 138.805,100.104 140.425,99.890 140.700 C 99.677 140.975,99.602 141.200,99.723 141.200 C 99.845 141.200,99.765 141.785,99.546 142.500 C 99.327 143.215,99.105 144.020,99.052 144.288 C 99.000 144.557,98.831 144.902,98.678 145.055 C 98.525 145.208,98.400 145.764,98.400 146.290 C 98.400 146.826,98.224 147.138,98.000 147.000 C 97.769 146.857,97.600 147.240,97.600 147.910 C 97.600 148.546,97.481 149.186,97.335 149.332 C 97.189 149.478,97.014 150.183,96.946 150.898 C 96.785 152.583,95.955 155.200,95.581 155.200 C 95.250 155.200,94.620 158.643,94.759 159.700 C 94.809 160.085,94.704 160.400,94.525 160.401 C 94.346 160.401,94.156 161.076,94.102 161.901 C 94.048 162.725,93.802 163.850,93.555 164.400 C 93.309 164.950,92.985 165.670,92.835 166.000 C 92.686 166.330,92.510 167.320,92.445 168.200 C 92.379 169.080,92.187 169.980,92.018 170.200 C 91.686 170.631,91.216 173.395,90.930 176.591 C 90.832 177.686,90.628 178.676,90.475 178.791 C 90.323 178.906,90.157 179.810,90.105 180.800 C 89.891 184.923,89.484 188.000,89.153 188.000 C 88.959 188.000,88.800 189.890,88.800 192.200 C 88.800 194.510,88.643 196.400,88.450 196.400 C 87.996 196.400,87.968 216.394,88.421 217.240 C 88.611 217.595,88.798 219.351,88.836 221.142 C 88.874 222.934,89.041 224.400,89.208 224.400 C 89.474 224.400,89.970 228.429,90.044 231.200 C 90.059 231.750,90.228 232.391,90.421 232.624 C 90.614 232.857,90.837 233.949,90.917 235.051 C 90.998 236.154,91.212 237.296,91.394 237.589 C 91.623 237.961,91.571 238.029,91.222 237.814 C 90.831 237.572,90.817 237.685,91.160 238.325 C 91.402 238.778,91.600 239.599,91.600 240.150 C 91.600 240.702,91.780 241.264,92.000 241.400 C 92.220 241.536,92.400 242.177,92.400 242.824 C 92.400 243.471,92.580 244.000,92.800 244.000 C 93.020 244.000,93.200 244.615,93.200 245.367 C 93.200 246.118,93.366 246.793,93.568 246.867 C 93.770 246.940,94.024 247.810,94.132 248.800 C 94.388 251.146,94.635 252.144,95.240 253.274 C 95.512 253.783,95.693 254.200,95.642 254.200 C 95.537 254.200,95.593 254.379,96.795 257.893 C 97.263 259.263,97.691 260.793,97.744 261.293 C 97.798 261.792,98.159 262.920,98.547 263.800 C 98.935 264.680,99.353 265.895,99.476 266.500 C 99.599 267.105,99.817 267.600,99.959 267.600 C 100.102 267.600,100.452 268.635,100.737 269.900 C 101.328 272.518,102.059 274.400,102.485 274.400 C 102.644 274.400,102.670 274.672,102.543 275.005 C 102.415 275.338,102.511 275.852,102.756 276.147 C 103.001 276.442,103.230 277.430,103.266 278.342 C 103.302 279.254,103.482 280.000,103.666 280.000 C 103.850 280.000,104.000 280.439,104.000 280.976 C 104.000 281.513,104.180 282.064,104.400 282.200 C 104.620 282.336,104.800 282.876,104.800 283.400 C 104.800 283.924,104.980 284.464,105.200 284.600 C 105.420 284.736,105.600 285.272,105.600 285.790 C 105.600 286.309,105.765 286.793,105.966 286.867 C 106.167 286.940,106.378 287.810,106.436 288.800 C 106.494 289.790,106.667 290.780,106.821 291.000 C 106.975 291.220,107.230 292.464,107.387 293.764 C 107.545 295.065,107.818 296.415,107.994 296.764 C 108.485 297.738,109.162 301.191,109.257 303.200 C 109.303 304.190,109.478 305.185,109.646 305.412 C 109.815 305.639,109.990 307.079,110.036 308.612 C 110.083 310.145,110.271 311.499,110.455 311.620 C 110.639 311.741,110.790 314.891,110.791 318.620 C 110.792 322.349,110.798 325.904,110.804 326.521 C 110.816 327.644,110.321 328.390,109.200 328.938 C 107.793 329.626,106.711 330.347,105.596 331.341 C 104.942 331.923,104.294 332.400,104.156 332.400 C 104.018 332.400,103.323 332.895,102.610 333.500 C 100.271 335.486,99.402 336.164,99.270 336.108 C 99.198 336.077,98.793 335.653,98.370 335.165 C 97.946 334.677,97.600 334.395,97.600 334.539 C 97.600 334.795,97.109 334.418,95.070 332.597 C 94.508 332.095,93.948 331.786,93.824 331.909 C 93.701 332.032,93.600 331.833,93.600 331.467 C 93.600 331.100,93.454 330.800,93.275 330.800 C 93.097 330.800,92.557 330.433,92.075 329.984 C 91.594 329.536,91.200 329.289,91.200 329.435 C 91.200 329.581,90.521 328.958,89.691 328.051 C 88.861 327.143,87.992 326.400,87.759 326.400 C 87.526 326.400,87.116 325.990,86.847 325.489 C 86.579 324.988,85.837 324.346,85.199 324.064 C 84.560 323.781,83.927 323.201,83.792 322.775 C 83.657 322.349,83.397 322.000,83.215 322.000 C 82.781 322.000,80.646 319.986,80.171 319.127 C 79.966 318.757,78.677 317.282,77.306 315.848 C 75.936 314.415,74.766 313.012,74.707 312.730 C 74.564 312.045,73.755 311.200,73.243 311.200 C 72.804 311.200,71.775 309.595,71.909 309.119 C 71.952 308.964,71.450 308.520,70.794 308.133 C 70.137 307.745,69.600 307.211,69.600 306.947 C 69.600 306.683,69.448 306.407,69.262 306.333 C 68.884 306.185,66.000 302.238,66.000 301.870 C 66.000 301.742,65.595 301.195,65.100 300.656 C 63.579 299.000,63.239 298.495,63.481 298.252 C 63.610 298.124,63.419 297.905,63.057 297.767 C 62.696 297.628,62.400 297.338,62.400 297.121 C 62.400 296.905,61.940 296.240,61.377 295.644 C 60.308 294.511,59.390 293.089,58.960 291.900 C 58.821 291.515,58.548 291.200,58.353 291.200 C 58.159 291.200,58.000 290.930,58.000 290.600 C 58.000 290.270,57.820 290.000,57.600 290.000 C 57.380 290.000,57.200 289.662,57.200 289.249 C 57.200 288.836,56.943 288.285,56.630 288.025 C 56.316 287.764,55.712 286.887,55.288 286.076 C 53.053 281.800,52.479 280.777,51.982 280.178 C 51.682 279.817,51.379 279.142,51.309 278.678 C 51.238 278.214,51.019 277.735,50.822 277.613 C 50.625 277.492,50.343 276.912,50.196 276.325 C 50.049 275.739,49.584 274.948,49.164 274.567 C 48.744 274.187,48.400 273.454,48.400 272.938 C 48.400 272.422,48.220 272.000,48.000 272.000 C 47.780 272.000,47.600 271.640,47.600 271.200 C 47.600 270.760,47.409 270.400,47.176 270.400 C 46.943 270.400,46.839 270.261,46.944 270.091 C 47.049 269.921,46.609 268.710,45.967 267.401 C 45.325 266.092,44.800 264.796,44.800 264.522 C 44.800 264.248,44.453 263.406,44.028 262.650 C 43.604 261.895,43.360 261.174,43.485 261.048 C 43.611 260.922,43.524 260.590,43.292 260.310 C 42.647 259.529,41.200 255.513,41.200 254.500 C 41.200 254.005,41.020 253.600,40.800 253.600 C 40.580 253.600,40.400 253.150,40.400 252.600 C 40.400 252.050,40.220 251.600,40.000 251.600 C 39.780 251.600,39.600 251.060,39.600 250.400 C 39.600 249.740,39.433 249.200,39.229 249.200 C 39.025 249.200,38.925 248.675,39.006 248.034 C 39.097 247.317,38.948 246.789,38.621 246.663 C 38.292 246.537,38.129 245.951,38.196 245.130 C 38.255 244.398,38.122 243.685,37.902 243.545 C 37.681 243.406,37.500 242.824,37.500 242.253 C 37.500 241.682,37.343 241.312,37.150 241.431 C 36.867 241.606,36.678 240.115,36.834 238.945 C 36.853 238.804,36.685 238.576,36.460 238.437 C 36.235 238.298,35.995 237.243,35.926 236.092 C 35.857 234.942,35.682 234.000,35.539 234.000 C 35.395 234.000,35.184 233.145,35.070 232.100 C 34.685 228.568,34.470 227.237,34.220 226.833 C 34.083 226.611,33.956 225.568,33.936 224.515 C 33.917 223.462,33.754 222.506,33.575 222.391 C 33.395 222.276,33.209 220.971,33.161 219.491 C 33.109 217.870,32.900 216.798,32.637 216.794 C 32.354 216.790,32.341 216.684,32.600 216.494 C 33.137 216.099,33.336 213.469,32.804 213.798 C 32.338 214.085,32.358 214.826,32.385 198.058 C 32.396 191.159,32.522 185.325,32.666 185.093 C 32.810 184.861,33.004 182.945,33.097 180.836 C 33.191 178.726,33.404 176.820,33.571 176.600 C 33.738 176.380,33.913 175.304,33.960 174.209 C 34.008 173.114,34.171 172.124,34.323 172.009 C 34.475 171.894,34.625 171.170,34.655 170.400 C 34.716 168.860,35.148 166.139,35.481 165.200 C 35.598 164.870,35.770 163.809,35.864 162.843 C 35.957 161.876,36.206 160.763,36.417 160.369 C 36.627 159.975,36.800 159.191,36.800 158.626 C 36.800 158.062,36.939 157.600,37.108 157.600 C 37.422 157.600,38.314 153.893,38.691 151.025 C 38.805 150.158,39.236 148.848,39.649 148.112 C 40.062 147.377,40.400 146.432,40.400 146.011 C 40.400 145.591,40.580 145.136,40.800 145.000 C 41.020 144.864,41.200 144.303,41.200 143.753 C 41.200 143.188,41.374 142.860,41.600 143.000 C 41.841 143.149,42.000 142.612,42.000 141.647 C 42.000 140.767,42.166 139.945,42.369 139.819 C 42.572 139.694,42.857 139.051,43.002 138.392 C 43.147 137.733,43.430 137.295,43.633 137.420 C 43.835 137.545,44.000 137.094,44.000 136.418 C 44.000 135.742,44.162 134.877,44.359 134.495 C 46.001 131.321,47.654 127.544,47.706 126.847 C 47.742 126.381,47.912 126.000,48.085 126.000 C 48.258 126.000,48.400 125.629,48.400 125.176 C 48.400 124.723,48.580 124.464,48.800 124.600 C 49.020 124.736,49.200 124.567,49.200 124.224 C 49.200 123.881,49.391 123.600,49.624 123.600 C 49.857 123.600,49.945 123.435,49.820 123.232 C 49.695 123.030,49.864 122.593,50.196 122.261 C 50.528 121.929,50.800 121.284,50.800 120.829 C 50.800 120.373,50.980 120.000,51.200 120.000 C 51.420 120.000,51.600 119.653,51.600 119.229 C 51.600 118.804,51.870 118.187,52.200 117.857 C 52.530 117.527,52.800 117.147,52.800 117.012 C 52.800 116.877,53.154 116.387,53.586 115.923 C 54.019 115.459,54.261 114.899,54.125 114.679 C 53.989 114.459,54.130 114.077,54.439 113.830 C 55.085 113.313,55.692 112.380,56.668 110.400 C 57.048 109.630,57.548 108.868,57.779 108.706 C 58.011 108.544,58.034 108.409,57.830 108.406 C 57.627 108.403,57.838 107.995,58.300 107.500 C 58.762 107.005,59.199 106.337,59.270 106.016 C 59.463 105.150,60.149 104.453,60.562 104.704 C 60.761 104.825,60.796 104.717,60.640 104.465 C 60.484 104.213,60.785 103.579,61.308 103.055 C 61.831 102.532,62.549 101.496,62.903 100.752 C 63.257 100.008,63.919 99.003,64.374 98.517 C 64.828 98.031,65.200 97.435,65.200 97.193 C 65.200 96.951,65.380 96.864,65.600 97.000 C 65.820 97.136,66.000 96.967,66.000 96.624 C 66.000 96.281,66.191 96.000,66.424 96.000 C 66.657 96.000,66.748 95.839,66.626 95.643 C 66.505 95.446,66.943 94.861,67.599 94.343 C 68.256 93.824,68.794 93.180,68.796 92.911 C 68.798 92.641,69.610 91.611,70.600 90.621 C 71.590 89.631,72.400 88.638,72.400 88.414 C 72.400 88.190,72.760 87.782,73.200 87.507 C 73.640 87.232,74.000 86.770,74.000 86.480 C 74.000 86.190,74.180 86.064,74.400 86.200 C 74.620 86.336,74.800 86.179,74.800 85.851 C 74.800 85.522,75.151 85.143,75.580 85.006 C 76.008 84.870,76.470 84.408,76.606 83.980 C 76.743 83.551,77.022 83.200,77.227 83.200 C 77.432 83.200,77.600 83.008,77.600 82.774 C 77.600 82.337,85.769 74.000,86.197 74.000 C 86.329 74.000,86.850 73.595,87.357 73.100 C 87.863 72.605,88.935 71.611,89.738 70.890 C 90.542 70.170,91.200 69.405,91.200 69.190 C 91.200 68.976,91.432 68.800,91.716 68.800 C 92.000 68.800,93.019 68.088,93.981 67.217 C 94.944 66.346,95.861 65.714,96.021 65.813 C 96.180 65.912,96.790 65.364,97.376 64.596 C 97.962 63.828,98.689 63.200,98.992 63.200 C 99.295 63.200,100.380 62.397,101.404 61.417 C 102.428 60.436,103.643 59.513,104.104 59.367 C 104.564 59.221,105.405 58.670,105.971 58.143 C 106.537 57.615,107.495 56.964,108.100 56.694 C 108.705 56.425,109.200 56.088,109.200 55.946 C 109.200 55.803,109.650 55.574,110.200 55.436 C 110.750 55.298,111.200 55.008,111.200 54.792 C 111.200 54.577,111.560 54.400,112.000 54.400 C 112.440 54.400,112.800 54.220,112.800 54.000 C 112.800 53.780,113.055 53.600,113.367 53.600 C 113.678 53.600,113.993 53.434,114.067 53.230 C 114.140 53.027,114.462 52.802,114.782 52.730 C 115.102 52.659,115.778 52.202,116.285 51.715 C 116.792 51.228,117.922 50.616,118.797 50.354 C 119.671 50.092,120.688 49.545,121.056 49.139 C 121.423 48.732,121.966 48.400,122.262 48.400 C 122.558 48.400,122.800 48.240,122.800 48.045 C 122.800 47.849,123.430 47.571,124.200 47.426 C 124.970 47.282,125.600 46.981,125.600 46.758 C 125.600 46.535,125.760 46.451,125.955 46.572 C 126.150 46.693,126.532 46.523,126.804 46.196 C 127.076 45.868,127.636 45.600,128.049 45.600 C 128.462 45.600,128.800 45.420,128.800 45.200 C 128.800 44.980,129.053 44.800,129.362 44.800 C 129.671 44.800,130.616 44.455,131.462 44.033 C 133.363 43.085,134.508 42.653,134.900 42.736 C 135.065 42.771,135.200 42.620,135.200 42.400 C 135.200 42.180,135.644 42.000,136.186 42.000 C 136.728 42.000,137.965 41.557,138.935 41.016 C 139.905 40.474,140.811 40.144,140.949 40.282 C 141.087 40.420,141.200 40.344,141.200 40.113 C 141.200 39.882,141.605 39.561,142.100 39.399 C 145.138 38.405,146.764 37.950,148.000 37.747 C 148.770 37.620,149.460 37.355,149.533 37.158 C 149.607 36.961,150.202 36.800,150.857 36.800 C 151.512 36.800,151.948 36.639,151.826 36.442 C 151.704 36.245,152.278 35.989,153.102 35.874 C 154.979 35.611,156.819 35.209,157.600 34.890 C 157.930 34.756,158.380 34.618,158.600 34.584 C 158.820 34.550,159.270 34.421,159.600 34.298 C 160.422 33.989,163.614 33.197,164.638 33.046 C 165.099 32.979,165.680 32.798,165.929 32.644 C 166.178 32.490,167.457 32.339,168.770 32.310 C 170.084 32.280,171.067 32.108,170.955 31.928 C 170.844 31.748,171.663 31.600,172.776 31.600 C 173.889 31.600,174.800 31.420,174.800 31.200 C 174.800 30.974,175.933 30.800,177.400 30.800 C 178.830 30.800,180.000 30.662,180.000 30.494 C 180.000 30.325,181.440 30.190,183.200 30.194 C 184.960 30.197,186.400 30.072,186.400 29.915 C 186.400 29.314,212.726 29.292,213.172 29.893 M166.580 126.839 C 166.789 127.037,167.284 127.200,167.680 127.200 C 168.076 127.200,168.400 127.479,168.400 127.819 C 168.400 128.160,168.871 128.843,169.446 129.338 C 172.526 131.987,169.892 139.526,165.800 139.775 C 165.360 139.802,164.775 139.964,164.500 140.135 C 164.207 140.318,164.000 140.253,164.000 139.980 C 164.000 139.679,163.637 139.604,162.978 139.770 C 161.028 140.259,157.372 137.182,157.905 135.500 C 157.957 135.335,157.852 135.200,157.671 135.200 C 157.491 135.200,157.302 134.300,157.252 133.200 C 157.202 132.100,157.311 131.200,157.495 131.200 C 157.679 131.200,157.858 130.824,157.893 130.364 C 157.981 129.189,159.138 127.541,160.041 127.305 C 160.458 127.196,160.800 126.960,160.800 126.781 C 160.800 126.080,165.834 126.130,166.580 126.839 M209.251 127.830 C 209.804 128.032,210.748 129.456,211.021 130.500 C 211.065 130.665,211.137 130.845,211.182 130.900 C 211.966 131.862,211.072 137.013,209.950 138.000 C 208.058 139.664,207.726 139.799,205.600 139.778 C 201.987 139.741,199.936 137.858,200.226 134.843 C 200.315 133.917,200.240 133.251,200.060 133.363 C 199.880 133.474,199.990 132.553,200.305 131.315 C 200.874 129.081,201.548 128.000,202.371 128.000 C 202.607 128.000,202.800 127.830,202.800 127.622 C 202.800 127.414,203.655 127.189,204.700 127.122 C 206.435 127.011,207.429 127.165,209.251 127.830 M213.397 251.149 C 212.076 251.761,210.693 252.564,210.324 252.933 C 209.955 253.303,209.199 253.642,208.645 253.688 C 208.091 253.734,207.713 253.847,207.805 253.939 C 208.110 254.243,205.831 255.802,205.270 255.673 C 204.964 255.603,204.837 255.736,204.983 255.973 C 205.129 256.208,204.967 256.400,204.624 256.400 C 204.281 256.400,204.000 256.580,204.000 256.800 C 204.000 257.020,203.770 257.200,203.488 257.200 C 203.207 257.200,202.717 257.560,202.400 258.000 C 202.083 258.440,201.649 258.800,201.436 258.800 C 200.756 258.800,198.406 260.582,198.403 261.100 C 198.401 261.375,198.117 261.600,197.771 261.600 C 197.026 261.600,195.931 262.597,196.286 262.952 C 196.422 263.089,196.329 263.200,196.080 263.200 C 195.831 263.200,195.036 263.811,194.313 264.558 C 191.430 267.540,189.600 269.575,189.600 269.800 C 189.600 270.172,187.602 272.074,187.585 271.718 C 187.577 271.543,187.107 272.358,186.541 273.530 C 185.974 274.701,185.261 275.755,184.955 275.873 C 184.650 275.990,184.400 276.392,184.400 276.767 C 184.400 277.142,184.070 277.803,183.667 278.236 C 183.263 278.669,182.933 279.295,182.933 279.627 C 182.933 280.295,180.933 283.870,180.362 284.223 C 180.163 284.347,180.000 284.966,180.000 285.600 C 180.000 286.234,179.820 286.864,179.600 287.000 C 179.380 287.136,179.200 287.766,179.200 288.400 C 179.200 289.034,179.020 289.664,178.800 289.800 C 178.580 289.936,178.400 290.397,178.400 290.824 C 178.400 291.251,178.244 291.600,178.052 291.600 C 177.861 291.600,177.788 292.320,177.890 293.200 C 177.996 294.116,177.905 294.800,177.678 294.800 C 176.826 294.800,176.002 311.349,176.772 313.000 C 177.087 313.677,177.383 315.548,177.704 318.900 C 177.741 319.285,177.913 319.600,178.086 319.600 C 178.259 319.600,178.400 320.140,178.400 320.800 C 178.400 321.460,178.536 322.000,178.702 322.000 C 179.012 322.000,180.014 324.019,180.146 324.906 C 180.257 325.659,183.260 331.366,183.692 331.646 C 183.901 331.781,184.281 332.254,184.536 332.697 C 184.791 333.140,185.230 333.883,185.512 334.348 C 185.983 335.125,185.943 335.186,185.012 335.109 C 184.455 335.063,184.000 334.907,184.000 334.763 C 184.000 334.618,182.965 334.544,181.700 334.598 C 180.435 334.652,179.400 334.735,179.400 334.782 C 179.400 334.924,177.530 335.117,175.100 335.227 C 173.835 335.284,172.800 335.438,172.800 335.568 C 172.800 335.812,170.173 336.808,169.318 336.888 C 169.052 336.913,168.928 337.083,169.041 337.267 C 169.231 337.573,168.639 337.767,167.889 337.644 C 167.718 337.616,167.473 337.864,167.346 338.196 C 167.219 338.528,166.858 338.800,166.545 338.800 C 166.231 338.800,165.872 339.069,165.746 339.398 C 165.619 339.726,165.351 339.893,165.148 339.768 C 164.946 339.643,164.806 339.689,164.837 339.870 C 164.984 340.716,164.748 341.200,164.187 341.200 C 163.851 341.200,163.457 341.515,163.312 341.900 C 163.168 342.285,162.768 342.819,162.425 343.087 C 162.081 343.355,161.948 343.580,162.129 343.587 C 162.309 343.594,162.173 343.885,161.825 344.232 C 161.477 344.580,161.295 345.030,161.420 345.232 C 161.545 345.435,161.469 345.600,161.250 345.600 C 161.032 345.600,160.932 346.038,161.030 346.574 C 161.127 347.110,161.025 347.661,160.803 347.798 C 160.581 347.935,160.400 349.117,160.400 350.424 C 160.400 351.731,160.222 352.800,160.004 352.800 C 159.787 352.800,159.646 353.250,159.692 353.800 C 159.737 354.350,159.915 354.800,160.087 354.800 C 160.259 354.800,160.400 355.692,160.400 356.781 C 160.400 357.871,160.565 359.176,160.767 359.681 C 161.527 361.581,161.725 362.209,161.659 362.512 C 161.622 362.684,161.954 363.213,162.396 363.688 C 163.296 364.654,163.462 365.389,162.700 365.034 C 162.425 364.905,161.885 364.689,161.500 364.554 C 161.115 364.418,160.800 364.148,160.800 363.953 C 160.800 363.759,160.665 363.636,160.500 363.679 C 159.318 363.992,153.656 359.281,154.185 358.425 C 154.280 358.271,154.007 357.893,153.579 357.585 C 153.150 357.276,152.800 356.739,152.800 356.392 C 152.800 356.044,152.628 355.588,152.418 355.378 C 151.364 354.324,151.382 344.132,152.439 343.020 C 152.637 342.811,152.800 342.305,152.800 341.896 C 152.800 341.487,152.980 341.264,153.200 341.400 C 153.427 341.540,153.600 341.204,153.600 340.624 C 153.600 340.061,153.758 339.600,153.950 339.600 C 154.143 339.600,154.548 339.090,154.850 338.466 C 155.541 337.041,157.839 334.400,158.388 334.400 C 158.615 334.400,158.800 334.248,158.800 334.061 C 158.800 333.581,160.122 332.203,160.600 332.185 C 161.323 332.157,164.187 330.618,164.847 329.902 C 165.203 329.516,165.658 329.200,165.858 329.200 C 167.170 329.200,167.409 327.808,167.404 320.200 C 167.402 316.020,167.528 311.520,167.684 310.200 C 168.700 301.634,168.898 300.400,169.256 300.400 C 169.445 300.400,169.600 299.800,169.600 299.067 C 169.600 298.333,169.722 297.611,169.872 297.462 C 170.021 297.312,170.211 296.459,170.295 295.566 C 170.378 294.673,170.791 293.328,171.213 292.577 C 171.634 291.826,171.882 290.958,171.762 290.647 C 171.643 290.335,171.738 289.962,171.973 289.817 C 172.208 289.672,172.400 289.124,172.400 288.600 C 172.400 288.076,172.580 287.536,172.800 287.400 C 173.020 287.264,173.200 286.724,173.200 286.200 C 173.200 285.676,173.380 285.136,173.600 285.000 C 173.820 284.864,174.000 284.443,174.000 284.065 C 174.000 283.686,174.360 283.117,174.800 282.800 C 175.240 282.483,175.600 281.824,175.600 281.335 C 175.600 280.847,175.766 280.345,175.969 280.219 C 176.172 280.094,176.457 279.453,176.601 278.795 C 176.745 278.138,176.999 277.600,177.164 277.600 C 177.330 277.600,177.720 277.105,178.032 276.500 C 179.432 273.784,181.324 270.800,181.647 270.800 C 181.841 270.800,182.000 270.522,182.000 270.182 C 182.000 269.842,182.442 269.122,182.982 268.582 C 183.522 268.042,183.877 267.600,183.771 267.600 C 183.664 267.600,185.006 266.160,186.752 264.400 C 188.498 262.640,190.018 261.200,190.129 261.200 C 190.241 261.200,191.192 260.400,192.241 259.423 C 193.291 258.445,194.272 257.721,194.421 257.813 C 194.571 257.906,195.015 257.625,195.409 257.191 C 195.802 256.756,196.366 256.400,196.662 256.400 C 196.958 256.400,197.200 256.220,197.200 256.000 C 197.200 255.780,197.487 255.600,197.838 255.600 C 198.189 255.600,198.998 255.229,199.636 254.775 C 200.273 254.321,200.976 254.061,201.197 254.198 C 201.419 254.335,201.600 254.284,201.600 254.084 C 201.600 253.570,204.647 252.258,205.138 252.561 C 205.362 252.700,205.643 252.655,205.762 252.461 C 205.882 252.268,206.839 251.888,207.890 251.618 C 208.940 251.347,210.160 250.967,210.600 250.772 C 211.040 250.578,212.210 250.356,213.200 250.279 C 214.190 250.203,215.180 250.117,215.400 250.088 C 215.620 250.060,214.719 250.537,213.397 251.149 " stroke="none" fill="#fc7414" fill-rule="evenodd"></path><path id="path1" d="" stroke="none" fill="#1007414" fill-rule="evenodd"></path><path id="path2" d="" stroke="none" fill="#1007414" fill-rule="evenodd"></path><path id="path3" d="" stroke="none" fill="#1007414" fill-rule="evenodd"></path><path id="path4" d="" stroke="none" fill="#1007414" fill-rule="evenodd"></path></g></svg>